<?xml version="1.0" encoding="utf-8"?>
<!-- Generator: Adobe Illustrator 27.5.0, SVG Export Plug-In . SVG Version: 6.00 Build 0)  -->
<svg version="1.1" xmlns="http://www.w3.org/2000/svg" xmlns:xlink="http://www.w3.org/1999/xlink" x="0px" y="0px"
	 viewBox="0 0 750 500" style="enable-background:new 0 0 750 500;" xml:space="preserve">
<g id="BACKGROUND">
	<g>
		<rect transform="matrix(-1 -1.224647e-16 1.224647e-16 -1 750 500)" style="fill:#FFFFFF;" width="750" height="500"/>
	</g>
</g>
<g id="OBJECTS">
	<g>
		<path style="fill:#C3E0F4;" d="M580.048,414.842H149.384c-1.749,0-3.166-1.829-3.166-4.085l0,0c0-2.256,1.417-4.085,3.166-4.085
			h430.664c1.749,0,3.166,1.829,3.166,4.085l0,0C583.214,413.013,581.796,414.842,580.048,414.842z"/>
		<path style="fill:#795FEE;" d="M140.118,372.499c1.445-0.447,3.348-0.641,5.835-0.444c7.876,0.622,39.835,3.022,80.28,5.941
			h344.815c12.208-12.896,20.562-33.192,21.789-64.505c4.753-121.297-98.851-177.634-197.361-168.886
			c-98.51,8.748-33.134,134.777-80.275,144.956c-47.141,10.179-45.802-26.342-116.624-18.804
			c-27.884,2.968-78.136,41.892-62.453,87.782C138.141,364.437,139.398,369.002,140.118,372.499z"/>
		<path style="fill:#795FEE;" d="M136.198,377.995h4.693c-0.069-1.427-0.308-3.235-0.773-5.496
			C136.853,373.509,135.966,375.831,136.198,377.995z"/>
		<path style="fill:#658FFD;" d="M658.57,391.199c9.789,0,17.697-7.992,17.594-17.78c-0.056-5.314-0.083-10.204-0.089-14.141
			c-0.095-66.008-67.618-90.106-111.167-43.727c-42.395,45.15-93.685,34.922-96.374-21.642h61.738V149.938
			c-3.98-38.677-17.255-56.207-53.413-62.71c-15.891-2.858-32.2-2.726-48.078,0.2C388.972,94.766,374,115.311,374,161.561
			c0,29.093-7.465,46.412-23.604,51.906c-43.519,7.518-68.812,29.122-68.812,75.728c0,60.689-52.944,72.736-96.492,26.356
			c-43.549-46.379-111.072-22.281-111.167,43.727c-0.006,3.937-0.033,8.827-0.089,14.141c-0.103,9.788,7.805,17.78,17.594,17.78
			H658.57z"/>
		<g>
			<rect x="176.613" y="320.144" style="fill:#FEAF12;" width="57.079" height="57.079"/>
			<rect x="176.613" y="320.144" style="opacity:0.54;fill:#FD6007;" width="57.079" height="15.359"/>
			<rect x="171.625" y="318.276" style="fill:#FEAF12;" width="67.054" height="13.491"/>
		</g>
		<g>
			<rect x="201.329" y="286.788" style="fill:#DB277D;" width="31.488" height="31.488"/>
			<rect x="201.329" y="286.788" style="opacity:0.54;fill:#F6884A;" width="31.488" height="8.473"/>
			<rect x="198.578" y="285.758" style="fill:#DB277D;" width="36.991" height="7.443"/>
		</g>
		<g>
			<linearGradient id="SVGID_1_" gradientUnits="userSpaceOnUse" x1="290.7592" y1="289.4882" x2="183.9309" y2="405.1519">
				<stop  offset="0" style="stop-color:#071786"/>
				<stop  offset="0.1509" style="stop-color:#05136B"/>
				<stop  offset="0.3236" style="stop-color:#041055"/>
				<stop  offset="0.5107" style="stop-color:#030E45"/>
				<stop  offset="0.7204" style="stop-color:#020C3B"/>
				<stop  offset="1" style="stop-color:#020C38"/>
			</linearGradient>
			<path style="fill:url(#SVGID_1_);" d="M175.653,407.491c0,3.379,2.74,6.117,6.118,6.117c3.379,0,6.118-2.738,6.118-6.117
				c0-3.38-2.739-6.118-6.118-6.118C178.393,401.373,175.653,404.111,175.653,407.491z"/>
			<path style="fill:#FFFFFF;" d="M178.028,407.491c0,2.067,1.675,3.742,3.743,3.742c2.067,0,3.744-1.675,3.744-3.742
				c0-2.067-1.676-3.743-3.744-3.743C179.703,403.748,178.028,405.424,178.028,407.491z"/>
			<path style="fill:#658FFD;" d="M173.834,398.086c1.589,1.153,4.292,3.671,4.925,7.804c0.028,0.932,0.261,1.693,0.62,2.277
				c0.012,0.021,0.025,0.042,0.038,0.063c0.018,0.028,0.035,0.056,0.054,0.083c0.525,0.818,1.284,1.22,2.054,1.237
				c0.029,0.001,0.058,0,0.087,0.001c0.029-0.001,0.058,0.001,0.087-0.001c0.771-0.016,1.53-0.419,2.054-1.237
				c0.018-0.027,0.036-0.055,0.054-0.083c0.012-0.021,0.025-0.041,0.038-0.062c0.359-0.584,0.592-1.345,0.62-2.277
				c0.633-4.133,3.336-6.651,4.925-7.803H173.834z"/>
			
				<linearGradient id="SVGID_00000146469293860199767630000002832110273145042099_" gradientUnits="userSpaceOnUse" x1="290.4213" y1="289.1772" x2="183.5936" y2="404.8403">
				<stop  offset="0" style="stop-color:#071786"/>
				<stop  offset="0.1509" style="stop-color:#05136B"/>
				<stop  offset="0.3236" style="stop-color:#041055"/>
				<stop  offset="0.5107" style="stop-color:#030E45"/>
				<stop  offset="0.7204" style="stop-color:#020C3B"/>
				<stop  offset="1" style="stop-color:#020C38"/>
			</linearGradient>
			<path style="fill:url(#SVGID_00000146469293860199767630000002832110273145042099_);" d="M180.153,407.033
				c0,0.781,0.634,1.416,1.417,1.416c0.782,0,1.416-0.635,1.416-1.416c0-0.782-0.634-1.417-1.416-1.417
				C180.786,405.616,180.153,406.251,180.153,407.033z"/>
			
				<linearGradient id="SVGID_00000178918766926307806510000000304050594016039870_" gradientUnits="userSpaceOnUse" x1="320.3068" y1="316.7788" x2="213.4783" y2="432.4428">
				<stop  offset="0" style="stop-color:#071786"/>
				<stop  offset="0.1509" style="stop-color:#05136B"/>
				<stop  offset="0.3236" style="stop-color:#041055"/>
				<stop  offset="0.5107" style="stop-color:#030E45"/>
				<stop  offset="0.7204" style="stop-color:#020C3B"/>
				<stop  offset="1" style="stop-color:#020C38"/>
			</linearGradient>
			<path style="fill:url(#SVGID_00000178918766926307806510000000304050594016039870_);" d="M230.406,407.491
				c0,3.379,2.74,6.117,6.118,6.117c3.379,0,6.118-2.738,6.118-6.117c0-3.38-2.739-6.118-6.118-6.118
				C233.147,401.373,230.406,404.111,230.406,407.491z"/>
			<path style="fill:#FFFFFF;" d="M232.781,407.491c0,2.067,1.676,3.742,3.743,3.742c2.067,0,3.744-1.675,3.744-3.742
				c0-2.067-1.676-3.743-3.744-3.743C234.457,403.748,232.781,405.424,232.781,407.491z"/>
			<path style="fill:#658FFD;" d="M228.587,398.086c1.589,1.153,4.292,3.671,4.925,7.804c0.028,0.932,0.261,1.693,0.62,2.277
				c0.012,0.021,0.025,0.042,0.038,0.063c0.018,0.028,0.035,0.056,0.054,0.083c0.525,0.818,1.284,1.22,2.054,1.237
				c0.029,0.001,0.058,0,0.087,0.001c0.029-0.001,0.058,0.001,0.087-0.001c0.771-0.016,1.529-0.419,2.054-1.237
				c0.018-0.027,0.036-0.055,0.054-0.083c0.013-0.021,0.026-0.041,0.038-0.062c0.359-0.584,0.592-1.345,0.62-2.277
				c0.633-4.133,3.336-6.651,4.925-7.803H228.587z"/>
			
				<linearGradient id="SVGID_00000077318309788254767960000001399357654109513135_" gradientUnits="userSpaceOnUse" x1="319.9692" y1="316.4676" x2="213.1415" y2="432.1307">
				<stop  offset="0" style="stop-color:#071786"/>
				<stop  offset="0.1509" style="stop-color:#05136B"/>
				<stop  offset="0.3236" style="stop-color:#041055"/>
				<stop  offset="0.5107" style="stop-color:#030E45"/>
				<stop  offset="0.7204" style="stop-color:#020C3B"/>
				<stop  offset="1" style="stop-color:#020C38"/>
			</linearGradient>
			<path style="fill:url(#SVGID_00000077318309788254767960000001399357654109513135_);" d="M234.906,407.033
				c0,0.781,0.634,1.416,1.417,1.416c0.782,0,1.416-0.635,1.416-1.416c0-0.782-0.634-1.417-1.416-1.417
				C235.54,405.616,234.906,406.251,234.906,407.033z"/>
			
				<linearGradient id="SVGID_00000120532947189651993730000010387933727838175378_" gradientUnits="userSpaceOnUse" x1="272.9915" y1="273.0772" x2="166.163" y2="388.7412">
				<stop  offset="0.0457" style="stop-color:#F8F2FA"/>
				<stop  offset="0.2204" style="stop-color:#F4F1FA"/>
				<stop  offset="0.3885" style="stop-color:#E9ECFA"/>
				<stop  offset="0.554" style="stop-color:#D5E5FB"/>
				<stop  offset="0.7179" style="stop-color:#BADAFC"/>
				<stop  offset="0.8791" style="stop-color:#97CDFD"/>
				<stop  offset="1" style="stop-color:#78C1FE"/>
			</linearGradient>
			<path style="fill:url(#SVGID_00000120532947189651993730000010387933727838175378_);" d="M147.486,324.701
				c2.794,13.91,8.225,40.553,9.965,46.34c1.507,5.008,3.388,7.566,7.566,7.566h85.364c4.178,0,6.484-3.185,7.567-7.566
				c0.802-3.243,7.848-31.759,11.451-46.34H147.486z M150.042,326.737H267.03c-3.449,13.469-10.195,39.812-10.963,42.807
				c-1.037,4.047-3.243,6.99-7.241,6.99h-82.002c-4,0-5.801-2.363-7.243-6.99C157.915,364.199,152.717,339.587,150.042,326.737z"/>
			
				<linearGradient id="SVGID_00000031174872409138782900000010764828964314154651_" gradientUnits="userSpaceOnUse" x1="263.7814" y1="264.5707" x2="156.953" y2="380.2346">
				<stop  offset="0.0457" style="stop-color:#F8F2FA"/>
				<stop  offset="0.2204" style="stop-color:#F4F1FA"/>
				<stop  offset="0.3885" style="stop-color:#E9ECFA"/>
				<stop  offset="0.554" style="stop-color:#D5E5FB"/>
				<stop  offset="0.7179" style="stop-color:#BADAFC"/>
				<stop  offset="0.8791" style="stop-color:#97CDFD"/>
				<stop  offset="1" style="stop-color:#78C1FE"/>
			</linearGradient>
			<path style="fill:url(#SVGID_00000031174872409138782900000010764828964314154651_);" d="M145.953,325.316
				c0,0.785,1.271,1.421,2.842,1.421h117.762c1.57,0,2.842-0.636,2.842-1.421l0,0c0-0.785-1.272-1.421-2.842-1.421H148.795
				C147.224,323.895,145.953,324.531,145.953,325.316L145.953,325.316z"/>
			
				<linearGradient id="SVGID_00000084490620787460283390000003552662827207988376_" gradientUnits="userSpaceOnUse" x1="292.8108" y1="291.3826" x2="185.9824" y2="407.0465">
				<stop  offset="0.0457" style="stop-color:#F8F2FA"/>
				<stop  offset="0.2204" style="stop-color:#F4F1FA"/>
				<stop  offset="0.3885" style="stop-color:#E9ECFA"/>
				<stop  offset="0.554" style="stop-color:#D5E5FB"/>
				<stop  offset="0.7179" style="stop-color:#BADAFC"/>
				<stop  offset="0.8791" style="stop-color:#97CDFD"/>
				<stop  offset="1" style="stop-color:#78C1FE"/>
			</linearGradient>
			<path style="fill:url(#SVGID_00000084490620787460283390000003552662827207988376_);" d="M162.246,377.956
				c0,0.785,0.959,1.421,2.142,1.421c0,0,73.842,0,77.773,0c7.343,0,9.592,11.651,9.592,11.651l1.727-7.009
				c0,0-4.164-7.484-8.844-7.484c-4.679,0-80.248,0-80.248,0C163.206,376.534,162.246,377.171,162.246,377.956L162.246,377.956z"/>
			
				<linearGradient id="SVGID_00000013885376082579901830000013317597598752748201_" gradientUnits="userSpaceOnUse" x1="270.5563" y1="270.8281" x2="163.7276" y2="386.4922">
				<stop  offset="0.0457" style="stop-color:#F8F2FA"/>
				<stop  offset="0.2204" style="stop-color:#F4F1FA"/>
				<stop  offset="0.3885" style="stop-color:#E9ECFA"/>
				<stop  offset="0.554" style="stop-color:#D5E5FB"/>
				<stop  offset="0.7179" style="stop-color:#BADAFC"/>
				<stop  offset="0.8791" style="stop-color:#97CDFD"/>
				<stop  offset="1" style="stop-color:#78C1FE"/>
			</linearGradient>
			<path style="fill:url(#SVGID_00000013885376082579901830000013317597598752748201_);" d="M148.916,338.368
				c0,0.784,1.218,1.421,2.724,1.421h113.074c1.502,0,2.721-0.637,2.721-1.421l0,0c0-0.785-1.22-1.422-2.721-1.422H151.64
				C150.135,336.947,148.916,337.583,148.916,338.368L148.916,338.368z"/>
			
				<linearGradient id="SVGID_00000062156378164035339520000003399847462653384867_" gradientUnits="userSpaceOnUse" x1="254.5697" y1="256.0624" x2="147.7412" y2="371.7264">
				<stop  offset="0.0457" style="stop-color:#F8F2FA"/>
				<stop  offset="0.2204" style="stop-color:#F4F1FA"/>
				<stop  offset="0.3885" style="stop-color:#E9ECFA"/>
				<stop  offset="0.554" style="stop-color:#D5E5FB"/>
				<stop  offset="0.7179" style="stop-color:#BADAFC"/>
				<stop  offset="0.8791" style="stop-color:#97CDFD"/>
				<stop  offset="1" style="stop-color:#78C1FE"/>
			</linearGradient>
			<path style="fill:url(#SVGID_00000062156378164035339520000003399847462653384867_);" d="M168.665,379.454
				c0.779-0.072,1.359-0.731,1.291-1.474l-4.836-52.572c-0.069-0.742-0.758-1.285-1.539-1.215l0,0
				c-0.782,0.073-1.36,0.732-1.292,1.475l4.836,52.572C167.193,378.983,167.882,379.527,168.665,379.454L168.665,379.454z"/>
			
				<linearGradient id="SVGID_00000134930794897750393610000009064642129058531238_" gradientUnits="userSpaceOnUse" x1="262.5007" y1="263.3876" x2="155.6722" y2="379.0515">
				<stop  offset="0.0457" style="stop-color:#F8F2FA"/>
				<stop  offset="0.2204" style="stop-color:#F4F1FA"/>
				<stop  offset="0.3885" style="stop-color:#E9ECFA"/>
				<stop  offset="0.554" style="stop-color:#D5E5FB"/>
				<stop  offset="0.7179" style="stop-color:#BADAFC"/>
				<stop  offset="0.8791" style="stop-color:#97CDFD"/>
				<stop  offset="1" style="stop-color:#78C1FE"/>
			</linearGradient>
			<path style="fill:url(#SVGID_00000134930794897750393610000009064642129058531238_);" d="M181.039,379.788
				c0.782-0.012,1.411-0.625,1.4-1.371l-0.802-52.788c-0.012-0.745-0.657-1.339-1.441-1.328l0,0
				c-0.785,0.013-1.413,0.626-1.401,1.372l0.802,52.788C179.608,379.205,180.252,379.799,181.039,379.788L181.039,379.788z"/>
			
				<linearGradient id="SVGID_00000039119607991494252320000012778603971662868103_" gradientUnits="userSpaceOnUse" x1="271.3428" y1="271.5547" x2="164.5145" y2="387.2184">
				<stop  offset="0.0457" style="stop-color:#F8F2FA"/>
				<stop  offset="0.2204" style="stop-color:#F4F1FA"/>
				<stop  offset="0.3885" style="stop-color:#E9ECFA"/>
				<stop  offset="0.554" style="stop-color:#D5E5FB"/>
				<stop  offset="0.7179" style="stop-color:#BADAFC"/>
				<stop  offset="0.8791" style="stop-color:#97CDFD"/>
				<stop  offset="1" style="stop-color:#78C1FE"/>
			</linearGradient>
			<path style="fill:url(#SVGID_00000039119607991494252320000012778603971662868103_);" d="M196.84,379.79
				c0.783,0.004,1.424-0.595,1.428-1.341l0.309-52.793c0.004-0.745-0.629-1.353-1.413-1.359l0,0
				c-0.785-0.003-1.425,0.596-1.43,1.342l-0.309,52.793C195.421,379.178,196.054,379.786,196.84,379.79L196.84,379.79z"/>
			
				<linearGradient id="SVGID_00000083048950123126707970000006888551711533153450_" gradientUnits="userSpaceOnUse" x1="280.9922" y1="280.4667" x2="174.164" y2="396.1305">
				<stop  offset="0.0457" style="stop-color:#F8F2FA"/>
				<stop  offset="0.2204" style="stop-color:#F4F1FA"/>
				<stop  offset="0.3885" style="stop-color:#E9ECFA"/>
				<stop  offset="0.554" style="stop-color:#D5E5FB"/>
				<stop  offset="0.7179" style="stop-color:#BADAFC"/>
				<stop  offset="0.8791" style="stop-color:#97CDFD"/>
				<stop  offset="1" style="stop-color:#78C1FE"/>
			</linearGradient>
			<path style="fill:url(#SVGID_00000083048950123126707970000006888551711533153450_);" d="M214.721,379.79
				c0.783,0.004,1.424-0.595,1.428-1.341l0.31-52.793c0.004-0.745-0.629-1.353-1.413-1.359l0,0c-0.785-0.003-1.425,0.596-1.43,1.342
				l-0.309,52.793C213.302,379.178,213.934,379.786,214.721,379.79L214.721,379.79z"/>
			
				<linearGradient id="SVGID_00000039837173342634092370000005757360840358255000_" gradientUnits="userSpaceOnUse" x1="290.8522" y1="289.5737" x2="184.0238" y2="405.2376">
				<stop  offset="0.0457" style="stop-color:#F8F2FA"/>
				<stop  offset="0.2204" style="stop-color:#F4F1FA"/>
				<stop  offset="0.3885" style="stop-color:#E9ECFA"/>
				<stop  offset="0.554" style="stop-color:#D5E5FB"/>
				<stop  offset="0.7179" style="stop-color:#BADAFC"/>
				<stop  offset="0.8791" style="stop-color:#97CDFD"/>
				<stop  offset="1" style="stop-color:#78C1FE"/>
			</linearGradient>
			<path style="fill:url(#SVGID_00000039837173342634092370000005757360840358255000_);" d="M231.66,379.75
				c0.781,0.042,1.451-0.526,1.491-1.271l2.843-52.717c0.04-0.745-0.564-1.382-1.346-1.425l0,0
				c-0.784-0.041-1.452,0.527-1.493,1.272l-2.843,52.718C230.273,379.071,230.875,379.708,231.66,379.75L231.66,379.75z"/>
			
				<linearGradient id="SVGID_00000040567627232505012000000015683656720615581325_" gradientUnits="userSpaceOnUse" x1="300.5708" y1="298.5496" x2="193.7425" y2="414.2133">
				<stop  offset="0.0457" style="stop-color:#F8F2FA"/>
				<stop  offset="0.2204" style="stop-color:#F4F1FA"/>
				<stop  offset="0.3885" style="stop-color:#E9ECFA"/>
				<stop  offset="0.554" style="stop-color:#D5E5FB"/>
				<stop  offset="0.7179" style="stop-color:#BADAFC"/>
				<stop  offset="0.8791" style="stop-color:#97CDFD"/>
				<stop  offset="1" style="stop-color:#78C1FE"/>
			</linearGradient>
			<path style="fill:url(#SVGID_00000040567627232505012000000015683656720615581325_);" d="M245.821,379.272
				c0.768,0.151,1.51-0.319,1.654-1.051l10.165-51.806c0.143-0.732-0.365-1.447-1.134-1.598l0,0
				c-0.771-0.15-1.512,0.319-1.655,1.052l-10.165,51.807C244.542,378.405,245.049,379.12,245.821,379.272L245.821,379.272z"/>
			
				<linearGradient id="SVGID_00000077314639260026972930000007207001894046368642_" gradientUnits="userSpaceOnUse" x1="277.7182" y1="277.443" x2="170.8899" y2="393.1067">
				<stop  offset="0.0457" style="stop-color:#F8F2FA"/>
				<stop  offset="0.2204" style="stop-color:#F4F1FA"/>
				<stop  offset="0.3885" style="stop-color:#E9ECFA"/>
				<stop  offset="0.554" style="stop-color:#D5E5FB"/>
				<stop  offset="0.7179" style="stop-color:#BADAFC"/>
				<stop  offset="0.8791" style="stop-color:#97CDFD"/>
				<stop  offset="1" style="stop-color:#78C1FE"/>
			</linearGradient>
			<path style="fill:url(#SVGID_00000077314639260026972930000007207001894046368642_);" d="M151.322,353.076
				c0,0.785,1.159,1.421,2.589,1.421h107.904c1.43,0,2.589-0.636,2.589-1.421l0,0c0-0.785-1.159-1.421-2.589-1.421H153.911
				C152.481,351.655,151.322,352.29,151.322,353.076L151.322,353.076z"/>
			
				<linearGradient id="SVGID_00000142138805036001489040000009403039937021747610_" gradientUnits="userSpaceOnUse" x1="283.7969" y1="283.0576" x2="176.9684" y2="398.7217">
				<stop  offset="0.0457" style="stop-color:#F8F2FA"/>
				<stop  offset="0.2204" style="stop-color:#F4F1FA"/>
				<stop  offset="0.3885" style="stop-color:#E9ECFA"/>
				<stop  offset="0.554" style="stop-color:#D5E5FB"/>
				<stop  offset="0.7179" style="stop-color:#BADAFC"/>
				<stop  offset="0.8791" style="stop-color:#97CDFD"/>
				<stop  offset="1" style="stop-color:#78C1FE"/>
			</linearGradient>
			<path style="fill:url(#SVGID_00000142138805036001489040000009403039937021747610_);" d="M154.351,365.303
				c0,0.785,1.093,1.421,2.443,1.421h102.081c1.349,0,2.442-0.636,2.442-1.421l0,0c0-0.785-1.092-1.421-2.442-1.421H156.794
				C155.444,363.883,154.351,364.518,154.351,365.303L154.351,365.303z"/>
			<g>
				
					<linearGradient id="SVGID_00000169536731436579504590000006108370736644480674_" gradientUnits="userSpaceOnUse" x1="298.3416" y1="298.0087" x2="192.238" y2="412.8879">
					<stop  offset="0.0457" style="stop-color:#F8F2FA"/>
					<stop  offset="0.2204" style="stop-color:#F4F1FA"/>
					<stop  offset="0.3885" style="stop-color:#E9ECFA"/>
					<stop  offset="0.554" style="stop-color:#D5E5FB"/>
					<stop  offset="0.7179" style="stop-color:#BADAFC"/>
					<stop  offset="0.8791" style="stop-color:#97CDFD"/>
					<stop  offset="1" style="stop-color:#78C1FE"/>
				</linearGradient>
				<path style="fill:url(#SVGID_00000169536731436579504590000006108370736644480674_);" d="M303.684,313.775
					c0-1.279-1.108-2.275-2.379-2.141l-29.501,3.119c-1.435,0.145-2.623,1.178-2.968,2.579c0,0-16.202,66.08-16.912,68.96
					c-1.23,4.974-3.427,7.219-4.256,7.219h-80.377c-4.06,0-3.382,4.575,0,4.575h80.377c3.124,0,5.604-1.318,7.789-10.157
					c0.638-2.582,13.443-56.26,16.619-69.159l29.66-2.853C302.842,315.811,303.684,314.884,303.684,313.775L303.684,313.775z"/>
			</g>
		</g>
		<path id="XMLID_827_" style="fill:#0E1835;" d="M430.221,409.346h113.243c9.701,0,17.564-7.864,17.564-17.564V162.169
			c0-9.701-7.864-17.564-17.564-17.564H430.221c-9.701,0-17.564,7.864-17.564,17.564v229.613
			C412.657,401.482,420.521,409.346,430.221,409.346z"/>
		<path id="XMLID_1_" style="fill:#1E2C5B;" d="M541.685,148.763H432.001c-9.396,0-17.013,7.617-17.013,17.012v222.398
			c0,9.396,7.617,17.012,17.013,17.012h109.685c9.396,0,17.012-7.617,17.012-17.012V165.776
			C558.698,156.38,551.081,148.763,541.685,148.763z"/>
		<path style="fill:#FFFFFF;" d="M546.195,158.967h-26.498c-2.088,0-3.69,1.73-3.682,3.818c0,0.013,0,0.027,0,0.04v0.365
			c0,6.397-5.186,11.583-11.583,11.583h-35.178c-6.397,0-11.583-5.186-11.583-11.583v-0.365c0-0.014,0-0.027,0-0.04
			c0.008-2.088-1.594-3.818-3.682-3.818h-26.498c-0.168,0-0.305,0.154-0.305,0.343v233.706c0,0.189,0.136,0.343,0.305,0.343h118.704
			c0.169,0,0.305-0.154,0.305-0.343V159.31C546.5,159.121,546.363,158.967,546.195,158.967z"/>
		<path style="fill:#D0D5EA;" d="M462.906,207.793h-50.249v81.767h50.249c0.766,0,1.387-0.571,1.387-1.276v-79.216
			C464.293,208.364,463.672,207.793,462.906,207.793z"/>
		<path style="fill:#D0D5EA;" d="M462.906,302.413h-50.249v81.767h50.249c0.766,0,1.387-0.571,1.387-1.276v-79.216
			C464.293,302.984,463.672,302.413,462.906,302.413z"/>
		<g>
			<g>
				<path style="fill:#FFFFFF;" d="M455.244,285.419h-79.216c-2.383,0-4.321-1.938-4.321-4.321v-79.216
					c0-2.382,1.939-4.321,4.321-4.321h79.216c2.383,0,4.321,1.939,4.321,4.321v79.216
					C459.565,283.482,457.627,285.419,455.244,285.419z M377.798,279.329h75.677v-75.676h-75.677V279.329z"/>
			</g>
			<g>
				<path style="fill:#FFFFFF;" d="M455.244,380.039h-79.216c-2.383,0-4.321-1.938-4.321-4.321v-79.216
					c0-2.383,1.939-4.322,4.321-4.322h79.216c2.383,0,4.321,1.939,4.321,4.322v79.216
					C459.565,378.101,457.627,380.039,455.244,380.039z M377.798,373.948h75.677v-75.677h-75.677V373.948z"/>
			</g>
			<path style="fill:#795FEE;" d="M455.473,282.374h-79.673c-0.578,0-1.047-0.469-1.047-1.047v-79.673
				c0-0.578,0.469-1.047,1.047-1.047h79.673c0.578,0,1.047,0.469,1.047,1.047v79.673
				C456.52,281.905,456.051,282.374,455.473,282.374z"/>
			<path style="fill:#795FEE;" d="M455.473,376.994H375.8c-0.578,0-1.047-0.469-1.047-1.047v-79.673
				c0-0.578,0.469-1.047,1.047-1.047h79.673c0.578,0,1.047,0.469,1.047,1.047v79.673
				C456.52,376.525,456.051,376.994,455.473,376.994z"/>
			<path style="fill:#FFFFFF;" d="M445.656,230.304l-13.374-9.284l0,0v0h-7.048c-2.421,2.525-5.825,4.099-9.599,4.099
				c-3.774,0-7.178-1.574-9.598-4.099h-7.048v0l-13.373,9.284l7.635,10.997l5.739-3.984v27.944h33.293v-27.944l5.739,3.984
				L445.656,230.304z"/>
			<polygon style="fill:#FFFFFF;" points="412.944,361.83 415.636,332.898 418.328,361.83 435.796,361.83 432.282,324.072 
				432.282,318.276 398.99,318.276 398.99,324.076 395.476,361.83 			"/>
			<g>
				<path style="fill:#795FEE;" d="M537.643,211.183h-66.198c-0.575,0-1.042-0.466-1.042-1.042v-8.492
					c0-0.576,0.466-1.042,1.042-1.042h66.198c0.575,0,1.042,0.466,1.042,1.042v8.493
					C538.685,210.717,538.218,211.183,537.643,211.183z"/>
				<path style="fill:#795FEE;" d="M537.643,232.83h-66.198c-0.575,0-1.042-0.466-1.042-1.042v-8.493
					c0-0.575,0.466-1.042,1.042-1.042h66.198c0.575,0,1.042,0.467,1.042,1.042v8.493C538.685,232.364,538.218,232.83,537.643,232.83
					z"/>
				<path style="fill:#795FEE;" d="M537.643,254.477h-66.198c-0.575,0-1.042-0.467-1.042-1.042v-8.493
					c0-0.575,0.466-1.042,1.042-1.042h66.198c0.575,0,1.042,0.467,1.042,1.042v8.493
					C538.685,254.011,538.218,254.477,537.643,254.477z"/>
				<path style="fill:#DB277D;" d="M518.947,282.374h-47.502c-0.575,0-1.042-0.466-1.042-1.042v-15.029
					c0-0.575,0.466-1.042,1.042-1.042h47.502c0.575,0,1.042,0.466,1.042,1.042v15.029
					C519.988,281.908,519.522,282.374,518.947,282.374z"/>
			</g>
			<g>
				<path style="fill:#795FEE;" d="M537.643,305.803h-66.198c-0.575,0-1.042-0.466-1.042-1.042v-8.493
					c0-0.575,0.466-1.042,1.042-1.042h66.198c0.575,0,1.042,0.466,1.042,1.042v8.492
					C538.685,305.337,538.218,305.803,537.643,305.803z"/>
				<path style="fill:#795FEE;" d="M537.643,327.45h-66.198c-0.575,0-1.042-0.466-1.042-1.042v-8.492
					c0-0.575,0.466-1.042,1.042-1.042h66.198c0.575,0,1.042,0.466,1.042,1.042v8.492C538.685,326.984,538.218,327.45,537.643,327.45
					z"/>
				<path style="fill:#795FEE;" d="M537.643,349.097h-66.198c-0.575,0-1.042-0.466-1.042-1.042v-8.493
					c0-0.575,0.466-1.042,1.042-1.042h66.198c0.575,0,1.042,0.466,1.042,1.042v8.492
					C538.685,348.631,538.218,349.097,537.643,349.097z"/>
				<path style="fill:#DB277D;" d="M518.946,376.994h-47.502c-0.575,0-1.042-0.467-1.042-1.042v-15.029
					c0-0.575,0.466-1.042,1.042-1.042h47.502c0.575,0,1.042,0.466,1.042,1.042v15.029
					C519.988,376.528,519.522,376.994,518.946,376.994z"/>
			</g>
		</g>
		
			<ellipse transform="matrix(0.9925 -0.1222 0.1222 0.9925 -21.7031 47.2917)" style="fill:#FFFFFF;" cx="374.752" cy="200.607" rx="20.582" ry="20.582"/>
		<circle style="fill:#DB277D;" cx="374.752" cy="200.607" r="17.197"/>
		<g>
			<g>
				<g>
					<g>
						
							<linearGradient id="SVGID_00000166655143499331667550000018384063747594643859_" gradientUnits="userSpaceOnUse" x1="-2169.7739" y1="5298.7158" x2="-2169.7739" y2="5334.8062" gradientTransform="matrix(-0.1244 0.9922 -0.9922 -0.1244 5305.3916 3108.6719)">
							<stop  offset="0" style="stop-color:#FFD1C1"/>
							<stop  offset="0.3861" style="stop-color:#FFCFBF"/>
							<stop  offset="0.5877" style="stop-color:#FFC9B7"/>
							<stop  offset="0.7467" style="stop-color:#FFBDA9"/>
							<stop  offset="0.8825" style="stop-color:#FFAE97"/>
							<stop  offset="1" style="stop-color:#FF9A7F"/>
						</linearGradient>
						<path style="fill:url(#SVGID_00000166655143499331667550000018384063747594643859_);" d="M302.295,292.461
							c-0.271-0.541-0.525-1.051-0.788-1.577c1.956-1.243,3.983-2.374,6.041-3.426c0.229,0.754,0.398,1.311,0.485,1.597l1.075,1.034
							c0.861,0.686,1.721,1.373,2.581,2.059c0.554,0.441,1.107,0.883,1.661,1.324c0.693,0.553,1.166,1.226,1.991,1.633
							c0.72,0.354,1.497,0.578,2.247,0.861c0.123,0.046,0.253,0.101,0.32,0.216c0.094,0.16,0.033,0.375-0.03,0.56
							c-0.145,0.428-0.311,0.884-0.667,1.157c-0.201,0.154-0.442,0.232-0.678,0.308c-0.357,0.114-0.733,0.231-1.104,0.229
							c-0.382-0.003-0.57-0.189-0.893-0.313c-0.531-0.205-1.213-0.211-1.78-0.318c0.103,0.02,0.298,1.212,0.326,1.325
							c0.143,0.573,0.254,1.107,0.188,1.719c-0.006,0.058-0.016,0.122-0.058,0.163c-0.042,0.042-0.103,0.049-0.159,0.062
							c-0.239,0.058-0.401,0.263-0.622,0.356c-0.227,0.096-0.476,0.027-0.707,0.102c-0.247,0.081-0.422,0.308-0.62,0.471
							c-0.337,0.277-0.735,0.376-1.139,0.46c-0.211,0.044-0.378,0.067-0.553,0.213c-0.167,0.139-0.293,0.327-0.494,0.418
							c-0.271,0.122-0.523-0.071-0.773-0.144c-0.34-0.1-0.481,0.15-0.78,0.249c-0.293,0.096-0.561-0.144-0.762-0.365
							c-0.767-0.845-1.984-1.766-2.506-2.785c-0.478-0.933-0.558-2.386-0.799-3.429c-0.323-1.393-0.646-2.785-0.969-4.178
							L302.295,292.461z"/>
						
							<linearGradient id="SVGID_00000020377755580539493970000010017396603593865862_" gradientUnits="userSpaceOnUse" x1="-3593.3003" y1="2488.9219" x2="-3603.5261" y2="2505.5925" gradientTransform="matrix(0.5159 0.8566 -0.8566 0.5159 4294.4561 2071.1201)">
							<stop  offset="0" style="stop-color:#FFD1C1"/>
							<stop  offset="0.3861" style="stop-color:#FFCFBF"/>
							<stop  offset="0.5877" style="stop-color:#FFC9B7"/>
							<stop  offset="0.7467" style="stop-color:#FFBDA9"/>
							<stop  offset="0.8825" style="stop-color:#FFAE97"/>
							<stop  offset="1" style="stop-color:#FF9A7F"/>
						</linearGradient>
						<path style="fill:url(#SVGID_00000020377755580539493970000010017396603593865862_);" d="M290.05,264.39
							c-0.425,0.667-0.739,1.39-0.832,2.162c-0.177,1.455,0.452,2.82,1.075,4.085c2.392,4.858,4.932,9.632,7.614,14.313
							c1.34,2.337,3.06,5.583,4.505,7.849l6.147-3.05c0,0-6.9-15.409-9.686-23.792c-0.516-1.552-1.136-3.233-2.539-3.977
							c-2.098-1.112-3.441-0.903-5.157,0.97C290.77,263.395,290.377,263.876,290.05,264.39z"/>
					</g>
					
						<linearGradient id="SVGID_00000073688416376951354510000014083415176299174324_" gradientUnits="userSpaceOnUse" x1="5035.5889" y1="29.8546" x2="5051.2412" y2="29.8546" gradientTransform="matrix(-0.9836 -0.4076 -0.3748 0.9043 5277.9648 2326.3689)">
						<stop  offset="0" style="stop-color:#FFD1C1"/>
						<stop  offset="0.0429" style="stop-color:#FFCCBB"/>
						<stop  offset="0.2701" style="stop-color:#FFB6A1"/>
						<stop  offset="0.503" style="stop-color:#FFA68E"/>
						<stop  offset="0.7427" style="stop-color:#FF9D83"/>
						<stop  offset="1" style="stop-color:#FF9A7F"/>
					</linearGradient>
					<path style="fill:url(#SVGID_00000073688416376951354510000014083415176299174324_);" d="M306.347,298.603
						c0.607-0.514,0.878-0.133,0.878-0.133l0.747,2.275c-0.035-0.321-0.071-0.642-0.106-0.962c-0.136-1.231-0.224-0.954-0.361-2.192
						c0,0,1.401-0.881,1.752,0.618l-0.023-2.475c0,0,1.46-1.817,3.826-0.31c0,0,0.729,4.501,0.708,5.107
						c-0.01,0.283-0.053,0.591-0.272,0.774c-0.252,0.211-0.655,0.187-0.925,0.378c-0.364,0.258-0.391,0.837-0.805,1.019
						c-0.3,0.132-0.692-0.005-0.982,0.145c-0.273,0.141-0.359,0.489-0.622,0.645c-0.228,0.135-0.538,0.096-0.777,0.216
						c-0.1,0.05-0.182,0.125-0.281,0.177c-0.196,0.102-0.557,0.084-0.758-0.077c-0.095-0.026-0.198-0.06-0.32-0.108
						C306.365,303.05,305.741,299.116,306.347,298.603z"/>
				</g>
				<g>
					
						<linearGradient id="SVGID_00000164495572753779652450000002521989328789176966_" gradientUnits="userSpaceOnUse" x1="-4419.3901" y1="-2305.124" x2="-4432.7217" y2="-2306.7224" gradientTransform="matrix(0.879 0.4767 -0.4767 0.879 3096.2393 4390.3188)">
						<stop  offset="0" style="stop-color:#FFD1C1"/>
						<stop  offset="0.3861" style="stop-color:#FFCFBF"/>
						<stop  offset="0.5877" style="stop-color:#FFC9B7"/>
						<stop  offset="0.7467" style="stop-color:#FFBDA9"/>
						<stop  offset="0.8825" style="stop-color:#FFAE97"/>
						<stop  offset="1" style="stop-color:#FF9A7F"/>
					</linearGradient>
					<path style="fill:url(#SVGID_00000164495572753779652450000002521989328789176966_);" d="M295.654,270.763
						c1.709-0.429,3.088-1.881,4.472-3.473c3.369-3.873,6.794-7.689,10.201-11.522c1.518-1.707,3.034-3.416,4.535-5.141
						c3.062-3.522,7.628-8.64,3.594-13.356c-0.918-1.074-2.964-1.414-4.235-1.222c-0.954,0.144-1.89,0.662-2.787,1.372
						c-1.904,1.509-3.637,3.889-5.025,5.415c-2.849,3.134-5.647,6.325-8.35,9.606c-1.736,2.108-3.449,4.241-5.062,6.459
						c-1.329,1.827-3.183,3.989-3.71,6.279c-0.561,2.443,1.341,4.424,3.275,5.253C293.722,270.929,294.735,270.994,295.654,270.763z
						"/>
				</g>
				<path style="fill:#FFFFFF;" d="M314.406,256.858c3.124-5.092,11.961-15.927,5.928-21.947
					c-6.676-6.661-18.507,12.056-18.507,12.056L314.406,256.858z"/>
			</g>
			<g>
				<g>
					
						<linearGradient id="SVGID_00000177466464086777765080000010555732375976863400_" gradientUnits="userSpaceOnUse" x1="386.1806" y1="277.6377" x2="397.4575" y2="282.8792" gradientTransform="matrix(0.862 0.507 -0.507 0.862 183.5279 -192.6216)">
						<stop  offset="0" style="stop-color:#FFD1C1"/>
						<stop  offset="0.2442" style="stop-color:#FFCEBD"/>
						<stop  offset="0.4921" style="stop-color:#FFC3B1"/>
						<stop  offset="0.7418" style="stop-color:#FFB39C"/>
						<stop  offset="0.9914" style="stop-color:#FF9B80"/>
						<stop  offset="1" style="stop-color:#FF9A7F"/>
					</linearGradient>
					<path style="fill:url(#SVGID_00000177466464086777765080000010555732375976863400_);" d="M372.19,263.323
						c0.747,0.259,1.523,0.398,2.295,0.311c1.457-0.164,2.639-1.091,3.726-1.99c4.175-3.45,8.233-7.023,12.167-10.714
						c1.965-1.843,4.725-4.267,6.597-6.196l-4.388-5.277c0,0-13.399,10.272-20.912,14.919c-1.391,0.86-2.883,1.852-3.283,3.389
						c-0.598,2.298-0.084,3.556,2.135,4.793C371.055,262.853,371.614,263.124,372.19,263.323z"/>
					
						<linearGradient id="SVGID_00000103236262106240565230000004447978653244384689_" gradientUnits="userSpaceOnUse" x1="392.9491" y1="254.3862" x2="406.9254" y2="262.3273" gradientTransform="matrix(0.862 0.507 -0.507 0.862 183.5279 -192.6216)">
						<stop  offset="0" style="stop-color:#FFD1C1"/>
						<stop  offset="0.3861" style="stop-color:#FFCFBF"/>
						<stop  offset="0.5877" style="stop-color:#FFC9B7"/>
						<stop  offset="0.7467" style="stop-color:#FFBDA9"/>
						<stop  offset="0.8825" style="stop-color:#FFAE97"/>
						<stop  offset="1" style="stop-color:#FF9A7F"/>
					</linearGradient>
					<path style="fill:url(#SVGID_00000103236262106240565230000004447978653244384689_);" d="M405.517,236.768
						c0.221-0.235-1.331-1.058-0.476-1.965c0,0-0.307-2.625-1.489-1.638l2.978-3.345c0,0,0.159-1.866-1.151-0.724
						c0,0-4.917,3.399-5.548,4.072c-1.681,0.607-1.76,0.965-1.759,0.98c-0.027-0.577,0.283-4.384,0.089-4.705
						c-0.128-0.212-0.472-0.623-0.922-0.666c-0.195-0.019-0.418-0.029-0.552,0.1c-0.096,0.092-0.119,0.231-0.136,0.362
						c-0.102,0.795-0.14,1.603-0.318,2.385c-0.205,0.897-0.751,1.512-1.129,2.314c-0.302,0.64-0.603,1.281-0.905,1.922
						c-0.469,0.995-0.938,1.991-1.407,2.987l-0.758,1.284c-0.258,0.151-0.761,0.444-1.442,0.84c1.499,1.76,3.067,3.471,4.729,5.087
						c0.451-0.377,0.888-0.742,1.352-1.131l-0.026-0.03c1.28-0.636,2.561-1.272,3.841-1.908c0.958-0.476,2.354-0.889,3.152-1.57
						C405.851,239.717,405.517,236.768,405.517,236.768z"/>
				</g>
			</g>
			<path style="fill:#2D447C;" d="M336.168,337.11c2.584-9.889,2.995-20.327,3.16-30.503c0.082-5.054-2.466-23.546-2.75-28.6
				c-0.538-9.567-2.52-7.739-13.931-5.303c-1.444,0.308-2.811,0.897-4.03,1.729c-14.345,9.797-5.845,32.256-1.964,44.913
				c1.685,5.496,4.035,12.064,6.063,17.445C330.087,343.214,336.168,337.11,336.168,337.11z"/>
			<g>
				
					<linearGradient id="SVGID_00000031893051257904126360000016475168132592859789_" gradientUnits="userSpaceOnUse" x1="-2891.7178" y1="927.9496" x2="-2894.8706" y2="898.1448" gradientTransform="matrix(-0.9945 0.1052 0.1052 0.9945 -2639.582 -204.2207)">
					<stop  offset="0" style="stop-color:#FFD1C1"/>
					<stop  offset="0.3861" style="stop-color:#FFCFBF"/>
					<stop  offset="0.5877" style="stop-color:#FFC9B7"/>
					<stop  offset="0.7467" style="stop-color:#FFBDA9"/>
					<stop  offset="0.8825" style="stop-color:#FFAE97"/>
					<stop  offset="1" style="stop-color:#FF9A7F"/>
				</linearGradient>
				<path style="fill:url(#SVGID_00000031893051257904126360000016475168132592859789_);" d="M316.196,403.625
					c0.184-0.834,0.628-1.642,1.001-2.432c0.106-0.225,0.991-2.433,1.024-2.689c0.48-3.713,0.748-14.06,0.748-14.06l10.303,0.793
					c0,0-2.273,8.778-1.298,14.146l-0.013,0c4.322,2.936,12.138,7.045,12.138,7.045s9.047,2.323,9.51,2.575
					c0.463,0.252,1.628,0.687,2.879,2.068c0,0,0.858,2.469-10.776,3.243c0,0-5.059,0.65-12.899-1.316
					c-1.709-0.305-3.418-0.611-5.127-0.916c-1.754-0.313-7.051-0.962-7.698-1.537c-0.25-0.222-0.413-0.44-0.516-0.663
					C314.688,408.178,315.814,405.359,316.196,403.625z"/>
				
					<linearGradient id="SVGID_00000169538657457493682430000008861240654400181897_" gradientUnits="userSpaceOnUse" x1="315.2013" y1="407.6211" x2="352.5021" y2="407.6211">
					<stop  offset="0" style="stop-color:#071786"/>
					<stop  offset="0.1509" style="stop-color:#05136B"/>
					<stop  offset="0.3236" style="stop-color:#041055"/>
					<stop  offset="0.5107" style="stop-color:#030E45"/>
					<stop  offset="0.7204" style="stop-color:#020C3B"/>
					<stop  offset="1" style="stop-color:#020C38"/>
				</linearGradient>
				<path style="fill:url(#SVGID_00000169538657457493682430000008861240654400181897_);" d="M317.174,401.241
					c2.571,0.645,5.401,0.737,7.751,0.653c1.68-0.06,3.585-0.381,5.276-1.068c4.335,2.678,9.898,5.602,9.898,5.602
					s9.047,2.323,9.51,2.575c0.463,0.252,1.628,0.687,2.879,2.068c0,0,0.858,2.469-10.776,3.243c0,0-5.059,0.65-12.899-1.316
					c-1.709-0.305-3.418-0.611-5.127-0.916c-1.754-0.313-7.051-0.963-7.698-1.537c-0.25-0.222-0.413-0.44-0.516-0.663
					c-0.785-1.704,0.341-4.523,0.723-6.257C316.376,402.808,316.806,402.016,317.174,401.241z"/>
				<path style="fill:#2D447C;" d="M318.698,389.425c-0.938-12.259-1.597-39.09,4.491-53.844c0.957-2.32,3.523-4.711,6.146-4.814
					c2.026-0.08,4.929,0.941,6.039,2.75c0.917,1.495,0.958,6.267,0.78,7.916c-0.504,4.671-4.748,34.423-6.764,48.481
					L318.698,389.425z"/>
			</g>
			<path style="fill:#394F8E;" d="M348.575,284.863h-22.167c-0.027,0.047-0.063,0.093-0.089,0.141l-0.024-0.141h-15.398
				l-0.024,0.022c-1.135,7.643,0.177,13.037,0.177,13.037c2.202,9.86,14.4,13.721,18.567,14.765
				c2.361,4.812,5.048,9.275,7.085,12.894c2.821,5.009,5.753,9.973,8.884,14.797c8.574,4.699,13.975-1.613,13.975-1.613
				c0.412-10.213-1.416-20.498-3.429-30.473C355.319,304.259,350.918,291.944,348.575,284.863z"/>
			<g>
				
					<linearGradient id="SVGID_00000124146714844989413560000003011090703753568414_" gradientUnits="userSpaceOnUse" x1="-2967.0583" y1="414.4166" x2="-2967.0583" y2="386.3129" gradientTransform="matrix(-1 0 0 1 -2601.9529 0)">
					<stop  offset="0" style="stop-color:#FFD1C1"/>
					<stop  offset="0.3861" style="stop-color:#FFCFBF"/>
					<stop  offset="0.5877" style="stop-color:#FFC9B7"/>
					<stop  offset="0.7467" style="stop-color:#FFBDA9"/>
					<stop  offset="0.8825" style="stop-color:#FFAE97"/>
					<stop  offset="1" style="stop-color:#FF9A7F"/>
				</linearGradient>
				<path style="fill:url(#SVGID_00000124146714844989413560000003011090703753568414_);" d="M346.895,406.024
					c0.091-0.849,0.444-1.701,0.729-2.527c0.081-0.235,0.718-2.527,0.723-2.784c0.07-3.744-0.799-14.058-0.799-14.058l10.327-0.342
					c0,0-1.297,8.974,0.261,14.203l-0.013,0.001c4.618,2.445,12.837,5.671,12.837,5.671s9.247,1.316,9.735,1.516
					c0.488,0.2,1.694,0.504,3.088,1.74c0,0,1.124,2.36-10.355,4.406c0,0-4.957,1.201-12.965,0.106
					c-1.732-0.116-3.464-0.232-5.196-0.348c-1.778-0.119-7.114-0.184-7.82-0.684c-0.273-0.193-0.459-0.392-0.585-0.602
					C345.895,410.715,346.705,407.79,346.895,406.024z"/>
				<path style="fill:#FFD9B6;" d="M353.249,386.466c-0.195,0.563-0.366,1.135-0.516,1.714c-0.212-0.555-0.415-1.114-0.61-1.676
					L353.249,386.466z"/>
				
					<linearGradient id="SVGID_00000168083109354427536700000001389384552959008660_" gradientUnits="userSpaceOnUse" x1="346.397" y1="408.116" x2="383.8141" y2="408.116">
					<stop  offset="0" style="stop-color:#071786"/>
					<stop  offset="0.1509" style="stop-color:#05136B"/>
					<stop  offset="0.3236" style="stop-color:#041055"/>
					<stop  offset="0.5107" style="stop-color:#030E45"/>
					<stop  offset="0.7204" style="stop-color:#020C3B"/>
					<stop  offset="1" style="stop-color:#020C38"/>
				</linearGradient>
				<path style="fill:url(#SVGID_00000168083109354427536700000001389384552959008660_);" d="M347.623,403.497
					c0.047-0.136,0.28-0.96,0.468-1.681c0.399,0.206,0.794,0.401,1.178,0.584c4.448,2.121,9.207,1.8,13.891,0.706
					c0.088-0.021,0.171-0.046,0.253-0.072c3.836,1.697,7.547,3.154,7.547,3.154s9.247,1.317,9.735,1.517
					c0.488,0.2,1.694,0.504,3.088,1.74c0,0,1.124,2.36-10.355,4.406c0,0-4.957,1.2-12.965,0.106
					c-1.732-0.116-3.464-0.232-5.196-0.348c-1.778-0.119-7.114-0.184-7.82-0.684c-0.273-0.193-0.459-0.392-0.585-0.602
					c-0.967-1.607-0.158-4.533,0.032-6.298C346.986,405.176,347.339,404.323,347.623,403.497z"/>
				<path style="fill:#394F8E;" d="M347.825,391.635c-2.044-10.846-3.345-21.928-3.528-32.968c-0.065-3.93,0.027-7.869,0.415-11.782
					c0.39-3.939,0.066-9.613,4.239-11.608c2.441-1.167,5.824-1.052,8.188,0.295c2.294,1.306,2.767,4.021,2.774,6.447
					c0.012,4.698-0.945,34.737-1.406,48.93C358.506,390.948,347.825,391.635,347.825,391.635z"/>
			</g>
			
				<linearGradient id="SVGID_00000048462460634777277520000011756956818703214015_" gradientUnits="userSpaceOnUse" x1="349.7692" y1="224.7961" x2="353.4523" y2="230.4991">
				<stop  offset="0" style="stop-color:#FFD1C1"/>
				<stop  offset="0.3861" style="stop-color:#FFCFBF"/>
				<stop  offset="0.5877" style="stop-color:#FFC9B7"/>
				<stop  offset="0.7467" style="stop-color:#FFBDA9"/>
				<stop  offset="0.8825" style="stop-color:#FFAE97"/>
				<stop  offset="1" style="stop-color:#FF9A7F"/>
			</linearGradient>
			<polygon style="fill:url(#SVGID_00000048462460634777277520000011756956818703214015_);" points="346.436,215.464 
				344.939,221.487 348.41,222.35 			"/>
			
				<linearGradient id="SVGID_00000064323925968360891430000006384155052705255323_" gradientUnits="userSpaceOnUse" x1="-2926.0085" y1="228.9583" x2="-2939.521" y2="221.1568" gradientTransform="matrix(-1 0 0 1 -2601.9529 0)">
				<stop  offset="0" style="stop-color:#FFD1C1"/>
				<stop  offset="0.3861" style="stop-color:#FFCFBF"/>
				<stop  offset="0.5877" style="stop-color:#FFC9B7"/>
				<stop  offset="0.7467" style="stop-color:#FFBDA9"/>
				<stop  offset="0.8825" style="stop-color:#FFAE97"/>
				<stop  offset="1" style="stop-color:#FF9A7F"/>
			</linearGradient>
			<path style="fill:url(#SVGID_00000064323925968360891430000006384155052705255323_);" d="M339.583,224.647
				c0.037,1.925-2.747,9.833-2.747,9.833c-1.162,1.317-6.799,1.794-9.179-0.218c-1.893-1.601-2.092-3.039-2.092-3.039l0.694-16.532
				L339.583,224.647z"/>
			
				<linearGradient id="SVGID_00000096031130956437070300000012473715010079363486_" gradientUnits="userSpaceOnUse" x1="-2927.6377" y1="220.3045" x2="-2950.9126" y2="206.8667" gradientTransform="matrix(-1 0 0 1 -2601.9529 0)">
				<stop  offset="0" style="stop-color:#FFD1C1"/>
				<stop  offset="0.3861" style="stop-color:#FFCFBF"/>
				<stop  offset="0.5877" style="stop-color:#FFC9B7"/>
				<stop  offset="0.7467" style="stop-color:#FFBDA9"/>
				<stop  offset="0.8825" style="stop-color:#FFAE97"/>
				<stop  offset="1" style="stop-color:#FF9A7F"/>
			</linearGradient>
			<path style="fill:url(#SVGID_00000096031130956437070300000012473715010079363486_);" d="M327.094,202.164l-0.619,5.893
				l-0.944,8.99l-0.266,2.529c5.733,9.75,15.225,10.781,18.303,7.525c3.077-3.255,4.462-21.846,4.462-21.846L327.094,202.164z"/>
			<path style="fill:#0A1123;" d="M326.551,226.89c1.775,0.62,3.731-0.177,4.565-1.862c1.115-2.254,2.723-5.424,4.254-8.143
				c0.276-0.491,2.933,3.72,3.201,3.266c1.215-2.056,2.435-8.321,3.097-8.696c2.249-1.271,8.357,1.108,11.276-5.485
				c1.595-3.603-0.5-6.551-2.064-6.844c-1.564-0.293,1.474-0.83-3.714-4.288c-5.279-3.519-19.946,0.38-21.601,4.583
				c0,0-6.738,0.684-5.271,9.873C321.76,218.483,324.302,226.205,326.551,226.89L326.551,226.89z"/>
			
				<linearGradient id="SVGID_00000123424166779716347170000011924520640051046310_" gradientUnits="userSpaceOnUse" x1="-2934.969" y1="217.727" x2="-2941.0681" y2="214.2057" gradientTransform="matrix(-1 0 0 1 -2601.9529 0)">
				<stop  offset="0" style="stop-color:#FFD1C1"/>
				<stop  offset="0.3861" style="stop-color:#FFCFBF"/>
				<stop  offset="0.5877" style="stop-color:#FFC9B7"/>
				<stop  offset="0.7467" style="stop-color:#FFBDA9"/>
				<stop  offset="0.8825" style="stop-color:#FFAE97"/>
				<stop  offset="1" style="stop-color:#FF9A7F"/>
			</linearGradient>
			<path style="fill:url(#SVGID_00000123424166779716347170000011924520640051046310_);" d="M334.07,211.371
				c-2.321,1.864-2.22,7.251,2.262,10.221l1.836-8.841C337.928,211.387,335.597,210.144,334.07,211.371z"/>
			<path style="fill:#FFFFFF;" d="M326.31,231.559c6.422,0.266,16.573,1.378,18.973,8.578c1.279,3.837,1.458,8.031,1.053,12.031
				c-0.318,3.138-0.589,6.28-0.718,9.437c-0.219,5.329-0.509,11.335,1.333,16.439l3.382,11.728c0,0-26.79,22.4-42.435,6.556
				c0,0-0.078-50.902,5.908-61.286c0.728-1.263,2.742-1.954,4.005-2.37C320.601,231.754,323.455,231.441,326.31,231.559z"/>
			<g>
				<g>
					
						<linearGradient id="SVGID_00000133493615099349059680000016211493397683768451_" gradientUnits="userSpaceOnUse" x1="-4019.3896" y1="-2374.9709" x2="-4023.7231" y2="-2335.7141" gradientTransform="matrix(-0.6341 0.7732 0.7732 0.6341 -370.1603 4854.5044)">
						<stop  offset="0" style="stop-color:#FFD1C1"/>
						<stop  offset="0.3861" style="stop-color:#FFCFBF"/>
						<stop  offset="0.5877" style="stop-color:#FFC9B7"/>
						<stop  offset="0.7467" style="stop-color:#FFBDA9"/>
						<stop  offset="0.8825" style="stop-color:#FFAE97"/>
						<stop  offset="1" style="stop-color:#FF9A7F"/>
					</linearGradient>
					<path style="fill:url(#SVGID_00000133493615099349059680000016211493397683768451_);" d="M372.918,263.177
						c-1.632,0.231-3.339-0.54-5.1-1.429c-4.285-2.165-8.599-4.261-12.904-6.379c-1.917-0.943-3.835-1.888-5.743-2.852
						c-3.896-1.969-9.658-4.79-7.829-10.301c0.416-1.254,2.068-2.271,3.237-2.554c0.878-0.212,1.87-0.094,2.899,0.205
						c2.182,0.635,4.524,2.085,6.264,2.917c3.575,1.709,7.125,3.485,10.625,5.373c2.248,1.213,4.485,2.456,6.666,3.808
						c1.796,1.113,4.165,2.331,5.43,4.129c1.349,1.918,0.401,4.306-0.982,5.706C374.65,262.638,373.794,263.052,372.918,263.177z"/>
				</g>
				<path style="fill:#FFFFFF;" d="M348.754,256.01c-4.815-3.536-17.088-10.234-13.773-18.086
					c3.668-8.689,21.689,4.178,21.689,4.178L348.754,256.01z"/>
			</g>
		</g>
		<g>
			<path style="fill:#FFFFFF;" d="M372.727,197.011c0,1.888-0.365,3.306-1.096,4.254c-0.731,0.948-1.802,1.422-3.214,1.422
				c-1.354,0-2.401-0.486-3.14-1.459c-0.739-0.973-1.108-2.378-1.108-4.217c0-3.751,1.416-5.627,4.248-5.627
				c1.387,0,2.452,0.486,3.195,1.459C372.355,193.816,372.727,195.206,372.727,197.011z M367.272,197.036
				c0,1.043,0.092,1.82,0.277,2.333c0.185,0.513,0.482,0.77,0.893,0.77c0.788,0,1.182-1.034,1.182-3.103
				c0-2.052-0.394-3.078-1.182-3.078c-0.411,0-0.708,0.252-0.893,0.757C367.365,195.22,367.272,195.994,367.272,197.036z
				 M381.198,191.643l-9.986,18.001h-2.955l9.986-18.001H381.198z M385.335,204.202c0,1.88-0.366,3.294-1.096,4.242
				c-0.731,0.948-1.802,1.423-3.214,1.423c-1.354,0-2.401-0.487-3.139-1.46c-0.739-0.973-1.108-2.374-1.108-4.205
				c0-3.751,1.416-5.627,4.248-5.627c1.387,0,2.452,0.486,3.195,1.459C384.964,201.007,385.335,202.396,385.335,204.202z
				 M379.88,204.227c0,1.043,0.092,1.82,0.277,2.333c0.185,0.513,0.482,0.769,0.893,0.769c0.788,0,1.182-1.034,1.182-3.103
				c0-2.052-0.394-3.078-1.182-3.078c-0.411,0-0.708,0.252-0.893,0.757C379.973,202.411,379.88,203.184,379.88,204.227z"/>
		</g>
		<path style="fill:#795FEE;" d="M546.5,182.196V159.31c0-0.189-0.137-0.343-0.305-0.343h-26.498c-2.088,0-3.689,1.73-3.682,3.818
			c0,0.013,0,0.027,0,0.04v0.365c0,6.397-5.186,11.583-11.583,11.583h-35.178c-6.397,0-11.583-5.186-11.583-11.583v-0.365
			c0-0.014,0-0.027,0-0.04c0.007-2.088-1.594-3.818-3.682-3.818h-26.498c-0.168,0-0.305,0.154-0.305,0.343v22.886H546.5z"/>
		<path id="XMLID_830_" style="fill:#0E1835;" d="M504.432,160.987h-35.178c-1.011,0-1.838,0.827-1.838,1.838v0.365
			c0,1.011,0.827,1.838,1.838,1.838h35.178c1.011,0,1.838-0.827,1.838-1.838v-0.365C506.27,161.815,505.443,160.987,504.432,160.987
			z"/>
		<g>
			<path style="fill-rule:evenodd;clip-rule:evenodd;fill:#FFFFFF;" d="M307.911,362.969c0,0-3.18-0.311-5.803-3.058
				c-2.193-2.297-2.963-4.575-3.234-5.893c-0.271,1.318-1.041,3.596-3.234,5.893c-2.623,2.747-5.803,3.058-5.803,3.058l0.078,0.086
				l-0.078,0.086c0,0,3.18,0.311,5.803,3.058c2.193,2.297,2.963,4.575,3.234,5.893c0.271-1.319,1.041-3.596,3.234-5.893
				c2.623-2.747,5.803-3.058,5.803-3.058l-0.078-0.086L307.911,362.969z"/>
			<path style="fill-rule:evenodd;clip-rule:evenodd;fill:#FFFFFF;" d="M626.79,327.775c0,0-1.808-0.177-3.299-1.739
				c-1.247-1.306-1.685-2.601-1.839-3.35c-0.154,0.75-0.592,2.044-1.839,3.35c-1.491,1.562-3.299,1.739-3.299,1.739l0.044,0.049
				l-0.044,0.049c0,0,1.808,0.177,3.299,1.739c1.247,1.306,1.685,2.601,1.839,3.35c0.154-0.75,0.592-2.045,1.839-3.35
				c1.491-1.562,3.299-1.739,3.299-1.739l-0.044-0.049L626.79,327.775z"/>
			<path style="fill-rule:evenodd;clip-rule:evenodd;fill:#FFFFFF;" d="M262.802,301.948c0,0-1.808-0.177-3.299-1.739
				c-1.247-1.306-1.685-2.601-1.839-3.35c-0.154,0.75-0.592,2.045-1.839,3.35c-1.491,1.562-3.299,1.739-3.299,1.739l0.045,0.049
				l-0.045,0.049c0,0,1.808,0.177,3.299,1.739c1.247,1.306,1.685,2.601,1.839,3.35c0.154-0.75,0.592-2.044,1.839-3.35
				c1.491-1.562,3.299-1.739,3.299-1.739l-0.044-0.049L262.802,301.948z"/>
			<path style="fill-rule:evenodd;clip-rule:evenodd;fill:#FFFFFF;" d="M395.42,158.918c0,0-1.808-0.177-3.299-1.739
				c-1.247-1.306-1.685-2.601-1.839-3.35c-0.154,0.749-0.592,2.044-1.839,3.35c-1.491,1.562-3.299,1.739-3.299,1.739l0.044,0.049
				l-0.044,0.049c0,0,1.808,0.177,3.299,1.739c1.247,1.306,1.685,2.601,1.839,3.35c0.154-0.749,0.592-2.044,1.839-3.35
				c1.491-1.562,3.299-1.739,3.299-1.739l-0.044-0.049L395.42,158.918z"/>
			<path style="fill-rule:evenodd;clip-rule:evenodd;fill:#FFFFFF;" d="M500.334,112.393c0,0-1.808-0.177-3.299-1.739
				c-1.247-1.306-1.685-2.601-1.839-3.35c-0.154,0.749-0.592,2.045-1.839,3.35c-1.491,1.562-3.299,1.739-3.299,1.739l0.044,0.049
				l-0.044,0.049c0,0,1.808,0.177,3.299,1.739c1.247,1.306,1.685,2.601,1.839,3.35c0.154-0.749,0.592-2.045,1.839-3.35
				c1.491-1.562,3.299-1.739,3.299-1.739l-0.044-0.049L500.334,112.393z"/>
			<path style="fill-rule:evenodd;clip-rule:evenodd;fill:#FFFFFF;" d="M124.487,348.444c0,0-3.18-0.311-5.803-3.058
				c-2.193-2.297-2.963-4.575-3.234-5.893c-0.271,1.318-1.041,3.596-3.234,5.893c-2.623,2.747-5.803,3.058-5.803,3.058l0.078,0.086
				l-0.078,0.086c0,0,3.18,0.311,5.803,3.058c2.193,2.297,2.963,4.575,3.234,5.893c0.271-1.319,1.041-3.596,3.234-5.893
				c2.623-2.747,5.803-3.058,5.803-3.058l-0.078-0.086L124.487,348.444z"/>
		</g>
	</g>
</g>
<g id="DESIGNED_BY_FREEPIK">
	<g>
		<g id="XMLID_2_">
			<g id="XMLID_21_">
				
					<linearGradient id="XMLID_00000047049073357502936690000014013820699094073240_" gradientUnits="userSpaceOnUse" x1="382.3387" y1="467.4663" x2="385.6466" y2="467.4663">
					<stop  offset="0" style="stop-color:#0E090F"/>
					<stop  offset="0.1506" style="stop-color:#160E18"/>
					<stop  offset="0.6857" style="stop-color:#2F1E33"/>
					<stop  offset="1" style="stop-color:#38243D"/>
				</linearGradient>
				<path id="XMLID_57_" style="fill:url(#XMLID_00000047049073357502936690000014013820699094073240_);" d="M385.104,465.465
					c-0.432,0.443-0.803,0.931-1.109,1.453l-0.465-0.241c-0.067-0.298-0.349-0.503-0.659-0.466c-0.331,0.039-0.568,0.339-0.529,0.67
					c0.039,0.331,0.339,0.568,0.67,0.529c0.065-0.008,0.127-0.026,0.183-0.052l0.451,0.234c-0.251,0.554-0.433,1.139-0.539,1.744
					l0.746,0.132c0.23-1.306,0.85-2.507,1.792-3.473L385.104,465.465z"/>
				
					<linearGradient id="XMLID_00000008150839022956115700000002006500198747887492_" gradientUnits="userSpaceOnUse" x1="387.2693" y1="462.9357" x2="392.2274" y2="462.9357">
					<stop  offset="0" style="stop-color:#0E090F"/>
					<stop  offset="0.1506" style="stop-color:#160E18"/>
					<stop  offset="0.6857" style="stop-color:#2F1E33"/>
					<stop  offset="1" style="stop-color:#38243D"/>
				</linearGradient>
				<path id="XMLID_56_" style="fill:url(#XMLID_00000008150839022956115700000002006500198747887492_);" d="M390.592,463.163
					c-0.171,0-0.341,0.006-0.51,0.017l-0.074-0.626c0.188-0.149,0.296-0.389,0.266-0.645c-0.046-0.393-0.402-0.674-0.795-0.628
					c-0.393,0.046-0.674,0.402-0.628,0.795c0.03,0.254,0.189,0.461,0.404,0.564l0.074,0.624c-0.714,0.116-1.403,0.332-2.06,0.646
					l0.327,0.684c0.934-0.447,1.942-0.673,2.995-0.673c0.496,0,0.993,0.053,1.475,0.158l0.16-0.741
					C391.692,463.222,391.142,463.163,390.592,463.163z"/>
				
					<linearGradient id="XMLID_00000027562190535430682140000008499097401582282418_" gradientUnits="userSpaceOnUse" x1="394.2899" y1="466.1287" x2="397.7242" y2="466.1287">
					<stop  offset="0" style="stop-color:#0E090F"/>
					<stop  offset="0.1506" style="stop-color:#160E18"/>
					<stop  offset="0.6857" style="stop-color:#2F1E33"/>
					<stop  offset="1" style="stop-color:#38243D"/>
				</linearGradient>
				<path id="XMLID_55_" style="fill:url(#XMLID_00000027562190535430682140000008499097401582282418_);" d="M397.194,465.711
					c0.331-0.04,0.566-0.341,0.525-0.672c-0.04-0.331-0.341-0.566-0.672-0.526c-0.309,0.038-0.535,0.304-0.53,0.609l-0.416,0.363
					c-0.418-0.43-0.89-0.813-1.408-1.139l-0.404,0.641c1.134,0.715,2.02,1.726,2.563,2.925l0.69-0.313
					c-0.251-0.554-0.568-1.072-0.942-1.545l0.402-0.351C397.065,465.716,397.129,465.719,397.194,465.711z"/>
				
					<linearGradient id="XMLID_00000176035308341179969240000007377530880778607243_" gradientUnits="userSpaceOnUse" x1="385.1384" y1="473.8084" x2="396.4764" y2="473.8084">
					<stop  offset="0" style="stop-color:#0E090F"/>
					<stop  offset="0.1506" style="stop-color:#160E18"/>
					<stop  offset="0.6857" style="stop-color:#2F1E33"/>
					<stop  offset="1" style="stop-color:#38243D"/>
				</linearGradient>
				<path id="XMLID_54_" style="fill:url(#XMLID_00000176035308341179969240000007377530880778607243_);" d="M390.044,473.372
					c-0.386,0.023-0.775,0.035-1.157,0.035c-0.88,0-1.733-0.061-2.478-0.179c-0.39-0.062-0.846-0.155-1.27-0.292
					c1.046,1.861,3.069,3.125,5.388,3.125c2.855,0,5.262-1.916,5.95-4.504c-0.682,0.449-1.505,0.825-2.459,1.123
					C392.839,473.047,391.464,473.286,390.044,473.372z"/>
				
					<linearGradient id="XMLID_00000179616750299011201640000005496304033965196188_" gradientUnits="userSpaceOnUse" x1="384.5122" y1="468.6649" x2="396.669" y2="468.6649">
					<stop  offset="0" style="stop-color:#0E090F"/>
					<stop  offset="0.1506" style="stop-color:#160E18"/>
					<stop  offset="0.6857" style="stop-color:#2F1E33"/>
					<stop  offset="1" style="stop-color:#38243D"/>
				</linearGradient>
				<path id="XMLID_22_" style="fill:url(#XMLID_00000179616750299011201640000005496304033965196188_);" d="M390.592,464.68
					c-3.352,0-6.08,2.666-6.08,5.943c0,0.426,0.046,0.849,0.137,1.261c0.674,0.483,2.706,0.89,5.348,0.731
					c2.88-0.173,5.297-0.957,6.672-2.159c-0.005-0.195-0.021-0.39-0.045-0.582C396.244,466.913,393.651,464.68,390.592,464.68z
					 M388.432,471.194c-1.02,0-1.85-0.83-1.85-1.85c0-1.02,0.83-1.85,1.85-1.85s1.85,0.83,1.85,1.85
					C390.282,470.365,389.452,471.194,388.432,471.194z M393.17,470.286c-0.75,0-1.36-0.61-1.36-1.36s0.61-1.361,1.36-1.361
					c0.75,0,1.361,0.61,1.361,1.361S393.92,470.286,393.17,470.286z"/>
			</g>
			
				<linearGradient id="XMLID_00000150076972976061938910000003289426912479979153_" gradientUnits="userSpaceOnUse" x1="401.0978" y1="469.9324" x2="406.597" y2="469.9324">
				<stop  offset="0" style="stop-color:#0E090F"/>
				<stop  offset="0.1506" style="stop-color:#160E18"/>
				<stop  offset="0.6857" style="stop-color:#2F1E33"/>
				<stop  offset="1" style="stop-color:#38243D"/>
			</linearGradient>
			<path id="XMLID_19_" style="fill:url(#XMLID_00000150076972976061938910000003289426912479979153_);" d="M406.595,466.547
				c-0.295-0.116-0.805-0.309-1.382-0.237c-0.551,0.069-0.844,0.341-0.844,1.007v0.866h2.228v1.717h-2.228v5.455h-1.932v-5.455
				h-1.339v-1.717h1.339v-0.888c0-1.68,0.896-2.783,2.568-2.783c0.642,0,1.157,0.122,1.59,0.308L406.595,466.547z"/>
			
				<linearGradient id="XMLID_00000082367625502761055690000003549336462280408997_" gradientUnits="userSpaceOnUse" x1="407.33" y1="471.6717" x2="412.3175" y2="471.6717">
				<stop  offset="0" style="stop-color:#0E090F"/>
				<stop  offset="0.1506" style="stop-color:#160E18"/>
				<stop  offset="0.6857" style="stop-color:#2F1E33"/>
				<stop  offset="1" style="stop-color:#38243D"/>
			</linearGradient>
			<path id="XMLID_17_" style="fill:url(#XMLID_00000082367625502761055690000003549336462280408997_);" d="M411.298,469.879
				c-0.177-0.03-0.358-0.046-0.526-0.046c-0.896,0-1.51,0.548-1.51,1.614v3.908h-1.932v-7.172h1.873v0.785
				c0.451-0.673,1.14-0.977,2.021-0.977c0.414,0,0.848,0.128,1.094,0.337L411.298,469.879z"/>
			
				<linearGradient id="XMLID_00000001645320399861287000000005838115243231331208_" gradientUnits="userSpaceOnUse" x1="411.8524" y1="471.7643" x2="418.9652" y2="471.7643">
				<stop  offset="0" style="stop-color:#0E090F"/>
				<stop  offset="0.1506" style="stop-color:#160E18"/>
				<stop  offset="0.6857" style="stop-color:#2F1E33"/>
				<stop  offset="1" style="stop-color:#38243D"/>
			</linearGradient>
			<path id="XMLID_14_" style="fill:url(#XMLID_00000001645320399861287000000005838115243231331208_);" d="M418.965,471.757
				c0,0.222-0.015,0.489-0.037,0.651h-5.085c0.207,1.036,0.933,1.488,1.843,1.488c0.622,0,1.295-0.252,1.813-0.688l1.132,1.243
				c-0.814,0.748-1.85,1.088-3.057,1.088c-2.198,0-3.723-1.495-3.723-3.753c0-2.258,1.48-3.797,3.627-3.797
				C417.544,467.99,418.958,469.522,418.965,471.757z M413.851,471.091h3.175c-0.178-0.918-0.733-1.436-1.562-1.436
				C414.554,469.655,414.021,470.203,413.851,471.091z"/>
			
				<linearGradient id="XMLID_00000075129692418880024770000009401991591332721561_" gradientUnits="userSpaceOnUse" x1="419.5057" y1="471.7643" x2="426.6185" y2="471.7643">
				<stop  offset="0" style="stop-color:#0E090F"/>
				<stop  offset="0.1506" style="stop-color:#160E18"/>
				<stop  offset="0.6857" style="stop-color:#2F1E33"/>
				<stop  offset="1" style="stop-color:#38243D"/>
			</linearGradient>
			<path id="XMLID_11_" style="fill:url(#XMLID_00000075129692418880024770000009401991591332721561_);" d="M426.618,471.757
				c0,0.222-0.015,0.489-0.037,0.651h-5.085c0.207,1.036,0.933,1.488,1.843,1.488c0.622,0,1.295-0.252,1.813-0.688l1.132,1.243
				c-0.814,0.748-1.85,1.088-3.057,1.088c-2.198,0-3.723-1.495-3.723-3.753c0-2.258,1.48-3.797,3.626-3.797
				C425.197,467.99,426.611,469.522,426.618,471.757z M421.504,471.091h3.175c-0.178-0.918-0.733-1.436-1.562-1.436
				C422.207,469.655,421.674,470.203,421.504,471.091z"/>
			
				<linearGradient id="XMLID_00000179617398491492314240000000822335576943987386_" gradientUnits="userSpaceOnUse" x1="427.4591" y1="473.152" x2="434.964" y2="473.152">
				<stop  offset="0" style="stop-color:#0E090F"/>
				<stop  offset="0.1506" style="stop-color:#160E18"/>
				<stop  offset="0.6857" style="stop-color:#2F1E33"/>
				<stop  offset="1" style="stop-color:#38243D"/>
			</linearGradient>
			<path id="XMLID_8_" style="fill:url(#XMLID_00000179617398491492314240000000822335576943987386_);" d="M434.964,471.764
				c0,2.154-1.495,3.775-3.471,3.775c-0.962,0-1.643-0.378-2.109-0.933v3.708h-1.924v-10.133h1.887v0.792
				c0.466-0.585,1.155-0.984,2.139-0.984C433.469,467.99,434.964,469.61,434.964,471.764z M429.287,471.764
				c0,1.132,0.747,1.976,1.843,1.976c1.14,0,1.85-0.881,1.85-1.976c0-1.095-0.71-1.976-1.85-1.976
				C430.035,469.788,429.287,470.632,429.287,471.764z"/>
			
				<linearGradient id="XMLID_00000031178899845860952040000003583279648684967337_" gradientUnits="userSpaceOnUse" x1="435.6029" y1="469.9731" x2="438.0675" y2="469.9731">
				<stop  offset="0" style="stop-color:#0E090F"/>
				<stop  offset="0.1506" style="stop-color:#160E18"/>
				<stop  offset="0.6857" style="stop-color:#2F1E33"/>
				<stop  offset="1" style="stop-color:#38243D"/>
			</linearGradient>
			<path id="XMLID_5_" style="fill:url(#XMLID_00000031178899845860952040000003583279648684967337_);" d="M438.068,465.836
				c0,0.696-0.54,1.229-1.236,1.229c-0.696,0-1.229-0.533-1.229-1.229c0-0.696,0.533-1.243,1.229-1.243
				C437.527,464.592,438.068,465.14,438.068,465.836z M437.809,475.354h-1.932v-7.172h1.932V475.354z"/>
			
				<linearGradient id="XMLID_00000109722263822581682210000000981181686945373623_" gradientUnits="userSpaceOnUse" x1="439.1006" y1="470.0249" x2="446.1243" y2="470.0249">
				<stop  offset="0" style="stop-color:#0E090F"/>
				<stop  offset="0.1506" style="stop-color:#160E18"/>
				<stop  offset="0.6857" style="stop-color:#2F1E33"/>
				<stop  offset="1" style="stop-color:#38243D"/>
			</linearGradient>
			<path id="XMLID_3_" style="fill:url(#XMLID_00000109722263822581682210000000981181686945373623_);" d="M441.032,470.736
				l2.701-2.554h2.368l-3.479,3.375l3.501,3.797h-2.376l-2.716-2.901v2.901h-1.932v-10.658h1.932V470.736z"/>
		</g>
		<g>
			
				<linearGradient id="SVGID_00000044167051693964003850000005625281818939507123_" gradientUnits="userSpaceOnUse" x1="303.8757" y1="470.4918" x2="310.5112" y2="470.4918">
				<stop  offset="0" style="stop-color:#0E090F"/>
				<stop  offset="0.1506" style="stop-color:#160E18"/>
				<stop  offset="0.6857" style="stop-color:#2F1E33"/>
				<stop  offset="1" style="stop-color:#38243D"/>
			</linearGradient>
			<path style="fill:url(#SVGID_00000044167051693964003850000005625281818939507123_);" d="M309.412,475.289v-1.055
				c-0.527,0.718-1.391,1.23-2.387,1.23c-1.846,0-3.149-1.406-3.149-3.706c0-2.256,1.289-3.721,3.149-3.721
				c0.952,0,1.816,0.469,2.387,1.245v-3.765h1.099v9.77H309.412z M309.412,473.37v-3.208c-0.395-0.615-1.245-1.143-2.124-1.143
				c-1.421,0-2.27,1.172-2.27,2.739c0,1.567,0.85,2.724,2.27,2.724C308.168,474.483,309.017,473.986,309.412,473.37z"/>
			
				<linearGradient id="SVGID_00000011714623508548231410000005891946555132839103_" gradientUnits="userSpaceOnUse" x1="311.9319" y1="471.7515" x2="318.8162" y2="471.7515">
				<stop  offset="0" style="stop-color:#0E090F"/>
				<stop  offset="0.1506" style="stop-color:#160E18"/>
				<stop  offset="0.6857" style="stop-color:#2F1E33"/>
				<stop  offset="1" style="stop-color:#38243D"/>
			</linearGradient>
			<path style="fill:url(#SVGID_00000011714623508548231410000005891946555132839103_);" d="M311.932,471.744
				c0-2.051,1.465-3.706,3.486-3.706c2.139,0,3.398,1.67,3.398,3.794v0.279h-5.727c0.088,1.333,1.026,2.446,2.549,2.446
				c0.805,0,1.626-0.322,2.182-0.894l0.527,0.718c-0.703,0.703-1.655,1.084-2.813,1.084
				C313.44,475.465,311.932,473.956,311.932,471.744z M315.403,468.947c-1.509,0-2.256,1.274-2.314,2.358h4.643
				C317.718,470.25,317.014,468.947,315.403,468.947z"/>
			
				<linearGradient id="SVGID_00000179634457352686949160000011525391065009869184_" gradientUnits="userSpaceOnUse" x1="319.607" y1="471.7515" x2="325.2462" y2="471.7515">
				<stop  offset="0" style="stop-color:#0E090F"/>
				<stop  offset="0.1506" style="stop-color:#160E18"/>
				<stop  offset="0.6857" style="stop-color:#2F1E33"/>
				<stop  offset="1" style="stop-color:#38243D"/>
			</linearGradient>
			<path style="fill:url(#SVGID_00000179634457352686949160000011525391065009869184_);" d="M319.607,474.351l0.571-0.791
				c0.469,0.542,1.362,1.011,2.329,1.011c1.084,0,1.67-0.513,1.67-1.216c0-1.714-4.38-0.659-4.38-3.281
				c0-1.098,0.952-2.036,2.636-2.036c1.201,0,2.051,0.454,2.622,1.026l-0.513,0.762c-0.424-0.513-1.201-0.894-2.109-0.894
				c-0.967,0-1.567,0.483-1.567,1.113c0,1.552,4.38,0.527,4.38,3.281c0,1.187-0.952,2.138-2.783,2.138
				C321.306,475.465,320.325,475.113,319.607,474.351z"/>
			
				<linearGradient id="SVGID_00000165912697958342715800000007421354555646575518_" gradientUnits="userSpaceOnUse" x1="326.4769" y1="470.5065" x2="327.9562" y2="470.5065">
				<stop  offset="0" style="stop-color:#0E090F"/>
				<stop  offset="0.1506" style="stop-color:#160E18"/>
				<stop  offset="0.6857" style="stop-color:#2F1E33"/>
				<stop  offset="1" style="stop-color:#38243D"/>
			</linearGradient>
			<path style="fill:url(#SVGID_00000165912697958342715800000007421354555646575518_);" d="M326.477,466.471
				c0-0.41,0.337-0.747,0.732-0.747c0.41,0,0.747,0.337,0.747,0.747c0,0.41-0.337,0.732-0.747,0.732
				C326.814,467.203,326.477,466.881,326.477,466.471z M326.667,475.289v-7.075h1.099v7.075H326.667z"/>
			
				<linearGradient id="SVGID_00000072984005152347378140000015395965051504202660_" gradientUnits="userSpaceOnUse" x1="329.1862" y1="473.0992" x2="335.8071" y2="473.0992">
				<stop  offset="0" style="stop-color:#0E090F"/>
				<stop  offset="0.1506" style="stop-color:#160E18"/>
				<stop  offset="0.6857" style="stop-color:#2F1E33"/>
				<stop  offset="1" style="stop-color:#38243D"/>
			</linearGradient>
			<path style="fill:url(#SVGID_00000072984005152347378140000015395965051504202660_);" d="M329.582,477.105l0.556-0.82
				c0.586,0.703,1.289,0.967,2.3,0.967c1.172,0,2.27-0.571,2.27-2.124v-1.011c-0.513,0.718-1.377,1.26-2.373,1.26
				c-1.845,0-3.149-1.377-3.149-3.662c0-2.27,1.289-3.677,3.149-3.677c0.952,0,1.802,0.469,2.373,1.245v-1.069h1.099v6.87
				c0,2.344-1.64,3.076-3.369,3.076C331.237,478.16,330.417,477.926,329.582,477.105z M334.709,473.253v-3.091
				c-0.381-0.615-1.23-1.143-2.109-1.143c-1.421,0-2.27,1.128-2.27,2.695c0,1.553,0.849,2.695,2.27,2.695
				C333.478,474.41,334.328,473.868,334.709,473.253z"/>
			
				<linearGradient id="SVGID_00000120554765861630868380000014903759694499115143_" gradientUnits="userSpaceOnUse" x1="337.6379" y1="471.6636" x2="343.5118" y2="471.6636">
				<stop  offset="0" style="stop-color:#0E090F"/>
				<stop  offset="0.1506" style="stop-color:#160E18"/>
				<stop  offset="0.6857" style="stop-color:#2F1E33"/>
				<stop  offset="1" style="stop-color:#38243D"/>
			</linearGradient>
			<path style="fill:url(#SVGID_00000120554765861630868380000014903759694499115143_);" d="M342.413,475.289v-4.629
				c0-1.245-0.63-1.641-1.582-1.641c-0.865,0-1.685,0.527-2.095,1.099v5.17h-1.099v-7.075h1.099v1.025
				c0.498-0.586,1.464-1.201,2.519-1.201c1.48,0,2.256,0.747,2.256,2.285v4.966H342.413z"/>
			
				<linearGradient id="SVGID_00000107557598638694248140000012652882693673939387_" gradientUnits="userSpaceOnUse" x1="344.9324" y1="471.7515" x2="351.8171" y2="471.7515">
				<stop  offset="0" style="stop-color:#0E090F"/>
				<stop  offset="0.1506" style="stop-color:#160E18"/>
				<stop  offset="0.6857" style="stop-color:#2F1E33"/>
				<stop  offset="1" style="stop-color:#38243D"/>
			</linearGradient>
			<path style="fill:url(#SVGID_00000107557598638694248140000012652882693673939387_);" d="M344.932,471.744
				c0-2.051,1.465-3.706,3.486-3.706c2.138,0,3.398,1.67,3.398,3.794v0.279h-5.727c0.088,1.333,1.025,2.446,2.549,2.446
				c0.806,0,1.626-0.322,2.183-0.894l0.527,0.718c-0.703,0.703-1.655,1.084-2.812,1.084
				C346.441,475.465,344.932,473.956,344.932,471.744z M348.404,468.947c-1.509,0-2.256,1.274-2.314,2.358h4.643
				C350.718,470.25,350.015,468.947,348.404,468.947z"/>
			
				<linearGradient id="SVGID_00000141438079966591938960000005784687842832736907_" gradientUnits="userSpaceOnUse" x1="352.8128" y1="470.4918" x2="359.4484" y2="470.4918">
				<stop  offset="0" style="stop-color:#0E090F"/>
				<stop  offset="0.1506" style="stop-color:#160E18"/>
				<stop  offset="0.6857" style="stop-color:#2F1E33"/>
				<stop  offset="1" style="stop-color:#38243D"/>
			</linearGradient>
			<path style="fill:url(#SVGID_00000141438079966591938960000005784687842832736907_);" d="M358.35,475.289v-1.055
				c-0.527,0.718-1.392,1.23-2.388,1.23c-1.846,0-3.149-1.406-3.149-3.706c0-2.256,1.289-3.721,3.149-3.721
				c0.952,0,1.817,0.469,2.388,1.245v-3.765h1.098v9.77H358.35z M358.35,473.37v-3.208c-0.396-0.615-1.245-1.143-2.124-1.143
				c-1.421,0-2.27,1.172-2.27,2.739c0,1.567,0.85,2.724,2.27,2.724C357.105,474.483,357.954,473.986,358.35,473.37z"/>
			
				<linearGradient id="SVGID_00000032644518286767990430000000050109550536487564_" gradientUnits="userSpaceOnUse" x1="364.6919" y1="470.4918" x2="371.3276" y2="470.4918">
				<stop  offset="0" style="stop-color:#0E090F"/>
				<stop  offset="0.1506" style="stop-color:#160E18"/>
				<stop  offset="0.6857" style="stop-color:#2F1E33"/>
				<stop  offset="1" style="stop-color:#38243D"/>
			</linearGradient>
			<path style="fill:url(#SVGID_00000032644518286767990430000000050109550536487564_);" d="M364.692,475.289v-9.77h1.099v3.765
				c0.572-0.776,1.421-1.245,2.388-1.245c1.845,0,3.149,1.465,3.149,3.721c0,2.299-1.304,3.706-3.149,3.706
				c-0.996,0-1.86-0.513-2.388-1.23v1.055H364.692z M367.9,474.483c1.436,0,2.286-1.157,2.286-2.724c0-1.568-0.85-2.739-2.286-2.739
				c-0.864,0-1.728,0.527-2.109,1.143v3.208C366.171,473.986,367.036,474.483,367.9,474.483z"/>
			
				<linearGradient id="SVGID_00000178918379689707005290000012423483558117622704_" gradientUnits="userSpaceOnUse" x1="371.6936" y1="473.187" x2="378.7832" y2="473.187">
				<stop  offset="0" style="stop-color:#0E090F"/>
				<stop  offset="0.1506" style="stop-color:#160E18"/>
				<stop  offset="0.6857" style="stop-color:#2F1E33"/>
				<stop  offset="1" style="stop-color:#38243D"/>
			</linearGradient>
			<path style="fill:url(#SVGID_00000178918379689707005290000012423483558117622704_);" d="M372.528,477.061
				c0.161,0.073,0.425,0.117,0.601,0.117c0.483,0,0.806-0.161,1.055-0.747l0.469-1.069l-2.959-7.148h1.187l2.358,5.8l2.344-5.8
				h1.201l-3.545,8.51c-0.425,1.025-1.143,1.421-2.08,1.435c-0.234,0-0.601-0.044-0.805-0.103L372.528,477.061z"/>
		</g>
	</g>
</g>
</svg>
